<svg xmlns="http://www.w3.org/2000/svg" xmlns:xlink="http://www.w3.org/1999/xlink" width="81" height="75" viewBox="0 0 81 75">
  <defs>
    <linearGradient id="linear-gradient" x2="1" y2="1" gradientUnits="objectBoundingBox">
      <stop offset="0" stop-color="#00b3d5"/>
      <stop offset="1" stop-color="#00e1d3"/>
    </linearGradient>
  </defs>
  <g id="Audience_poll" data-name="Audience poll" transform="translate(0.328 0.181)">
    <rect id="back" width="81" height="75" rx="16" transform="translate(-0.328 -0.181)" opacity="0" fill="url(#linear-gradient)"/>
    <g id="Group_1610" data-name="Group 1610" transform="translate(2 -0.469)">
      <path id="Path_3280" data-name="Path 3280" d="M-31.13.08a.544.544,0,0,1-.5-.24.58.58,0,0,1,.01-.58l2.64-5.85a.955.955,0,0,1,.315-.415.741.741,0,0,1,.425-.125.725.725,0,0,1,.415.125.955.955,0,0,1,.315.415l2.65,5.85a.61.61,0,0,1,.02.585.513.513,0,0,1-.48.235.641.641,0,0,1-.435-.135A1.136,1.136,0,0,1-26.03-.47l-.5-1.16h-3.44l-.49,1.16a1.3,1.3,0,0,1-.27.42A.566.566,0,0,1-31.13.08Zm2.87-5.74-1.27,3.01h2.56l-1.27-3.01ZM-22.11.1q-1.8,0-1.8-2.02V-4.34a.552.552,0,0,1,.62-.63.557.557,0,0,1,.63.63V-1.9a1.18,1.18,0,0,0,.21.77.828.828,0,0,0,.67.25,1.069,1.069,0,0,0,.82-.345,1.292,1.292,0,0,0,.32-.915v-2.2a.552.552,0,0,1,.62-.63.557.557,0,0,1,.63.63V-.56q0,.64-.61.64t-.61-.64V-.73A1.624,1.624,0,0,1-22.11.1Zm5.9,0a2.043,2.043,0,0,1-1.125-.31A2.057,2.057,0,0,1-18.09-1.1a3.16,3.16,0,0,1-.27-1.355,3.119,3.119,0,0,1,.27-1.355,2.068,2.068,0,0,1,.755-.875,2.043,2.043,0,0,1,1.125-.31,1.924,1.924,0,0,1,.94.23,1.545,1.545,0,0,1,.63.61V-6.5a.552.552,0,0,1,.62-.63.557.557,0,0,1,.63.63V-.56a.557.557,0,0,1-.62.64.557.557,0,0,1-.62-.64V-.77a1.541,1.541,0,0,1-.63.635A1.912,1.912,0,0,1-16.21.1Zm.35-.95a1.117,1.117,0,0,0,.9-.405,1.818,1.818,0,0,0,.34-1.195,1.794,1.794,0,0,0-.34-1.2,1.129,1.129,0,0,0-.9-.395,1.129,1.129,0,0,0-.9.395,1.794,1.794,0,0,0-.34,1.2,1.818,1.818,0,0,0,.34,1.195A1.117,1.117,0,0,0-15.86-.85Zm4.39-5.04a.787.787,0,0,1-.545-.175.618.618,0,0,1-.2-.485.615.615,0,0,1,.2-.49.8.8,0,0,1,.545-.17q.74,0,.74.66T-11.47-5.89Zm0,5.96a.583.583,0,0,1-.46-.18.727.727,0,0,1-.16-.5V-4.28q0-.68.62-.68t.63.68V-.61a.727.727,0,0,1-.16.5A.6.6,0,0,1-11.47.07ZM-7.13.1A3.079,3.079,0,0,1-8.56-.21a2.2,2.2,0,0,1-.925-.88A2.681,2.681,0,0,1-9.81-2.44a2.706,2.706,0,0,1,.315-1.33,2.315,2.315,0,0,1,.87-.895A2.456,2.456,0,0,1-7.36-4.99a2.121,2.121,0,0,1,1.645.66,2.562,2.562,0,0,1,.6,1.8q0,.37-.48.37H-8.61A1.332,1.332,0,0,0-7.11-.85a3.013,3.013,0,0,0,.585-.065A2.131,2.131,0,0,0-5.91-1.14a.566.566,0,0,1,.44-.095.394.394,0,0,1,.255.215.5.5,0,0,1,.02.355A.59.59,0,0,1-5.48-.33a2.6,2.6,0,0,1-.8.325A3.773,3.773,0,0,1-7.13.1Zm-.18-4.24a1.2,1.2,0,0,0-.89.34,1.512,1.512,0,0,0-.41.92h2.46a1.5,1.5,0,0,0-.335-.935A1.058,1.058,0,0,0-7.31-4.14ZM-3.5.08a.557.557,0,0,1-.62-.64V-4.34a.548.548,0,0,1,.61-.63.548.548,0,0,1,.61.63v.21a1.662,1.662,0,0,1,.675-.64,2.046,2.046,0,0,1,.955-.22Q.46-4.99.46-2.98V-.56A.557.557,0,0,1-.16.08.561.561,0,0,1-.79-.56V-2.92A1.3,1.3,0,0,0-1-3.75a.814.814,0,0,0-.665-.26,1.145,1.145,0,0,0-.875.345,1.28,1.28,0,0,0-.325.915V-.56A.561.561,0,0,1-3.5.08ZM3.99.1A2.727,2.727,0,0,1,2.65-.215a2.169,2.169,0,0,1-.88-.9,2.844,2.844,0,0,1-.31-1.36,2.756,2.756,0,0,1,.31-1.345,2.128,2.128,0,0,1,.88-.87,2.8,2.8,0,0,1,1.34-.3,3.154,3.154,0,0,1,.715.09,2.419,2.419,0,0,1,.725.3.456.456,0,0,1,.235.31.523.523,0,0,1-.05.35.494.494,0,0,1-.25.23.412.412,0,0,1-.375-.05,1.807,1.807,0,0,0-.89-.26,1.265,1.265,0,0,0-1.005.4A1.7,1.7,0,0,0,2.74-2.46,1.762,1.762,0,0,0,3.1-1.3,1.237,1.237,0,0,0,4.1-.87a1.862,1.862,0,0,0,.89-.25.4.4,0,0,1,.37-.05.43.43,0,0,1,.23.235.568.568,0,0,1,.03.35.478.478,0,0,1-.23.305,2.469,2.469,0,0,1-.7.29A2.966,2.966,0,0,1,3.99.1ZM8.76.1A3.079,3.079,0,0,1,7.33-.21a2.2,2.2,0,0,1-.925-.88A2.681,2.681,0,0,1,6.08-2.44,2.706,2.706,0,0,1,6.4-3.77a2.315,2.315,0,0,1,.87-.895A2.456,2.456,0,0,1,8.53-4.99a2.121,2.121,0,0,1,1.645.66,2.562,2.562,0,0,1,.6,1.8q0,.37-.48.37H7.28A1.332,1.332,0,0,0,8.78-.85a3.013,3.013,0,0,0,.585-.065A2.131,2.131,0,0,0,9.98-1.14a.566.566,0,0,1,.44-.095.394.394,0,0,1,.255.215.5.5,0,0,1,.02.355.59.59,0,0,1-.285.335,2.6,2.6,0,0,1-.8.325A3.773,3.773,0,0,1,8.76.1ZM8.58-4.14a1.2,1.2,0,0,0-.89.34,1.512,1.512,0,0,0-.41.92H9.74a1.5,1.5,0,0,0-.335-.935A1.058,1.058,0,0,0,8.58-4.14ZM15.1,1.88a.552.552,0,0,1-.62-.63V-4.34a.548.548,0,0,1,.61-.63.552.552,0,0,1,.62.63v.21a1.558,1.558,0,0,1,.63-.625,1.932,1.932,0,0,1,.96-.235,2.043,2.043,0,0,1,1.125.31,2.068,2.068,0,0,1,.755.875,3.119,3.119,0,0,1,.27,1.355A3.16,3.16,0,0,1,19.18-1.1a2.069,2.069,0,0,1-.75.885A2.037,2.037,0,0,1,17.3.1a1.93,1.93,0,0,1-.935-.225A1.589,1.589,0,0,1,15.73-.73V1.25A.557.557,0,0,1,15.1,1.88ZM16.95-.85a1.117,1.117,0,0,0,.9-.405,1.818,1.818,0,0,0,.34-1.195,1.794,1.794,0,0,0-.34-1.2,1.129,1.129,0,0,0-.9-.395,1.129,1.129,0,0,0-.9.395,1.794,1.794,0,0,0-.34,1.2,1.818,1.818,0,0,0,.34,1.195A1.117,1.117,0,0,0,16.95-.85ZM22.71.1a2.683,2.683,0,0,1-1.32-.31,2.161,2.161,0,0,1-.87-.885,2.814,2.814,0,0,1-.31-1.355,2.785,2.785,0,0,1,.31-1.35,2.168,2.168,0,0,1,.87-.88,2.683,2.683,0,0,1,1.32-.31,2.683,2.683,0,0,1,1.32.31,2.168,2.168,0,0,1,.87.88,2.785,2.785,0,0,1,.31,1.35A2.814,2.814,0,0,1,24.9-1.1a2.161,2.161,0,0,1-.87.885A2.683,2.683,0,0,1,22.71.1Zm0-.95a1.117,1.117,0,0,0,.9-.405,1.818,1.818,0,0,0,.34-1.195,1.794,1.794,0,0,0-.34-1.2,1.129,1.129,0,0,0-.9-.395,1.129,1.129,0,0,0-.9.395,1.794,1.794,0,0,0-.34,1.2,1.818,1.818,0,0,0,.34,1.195A1.117,1.117,0,0,0,22.71-.85Zm5.2.95q-1.67,0-1.67-1.87V-6.5a.552.552,0,0,1,.62-.63.557.557,0,0,1,.63.63v4.67q0,.9.75.9.08,0,.15-.005t.14-.015a.165.165,0,0,1,.19.075.961.961,0,0,1,.05.385.662.662,0,0,1-.1.39.455.455,0,0,1-.33.17A3.037,3.037,0,0,1,27.91.1ZM31.1.1q-1.67,0-1.67-1.87V-6.5a.552.552,0,0,1,.62-.63.557.557,0,0,1,.63.63v4.67q0,.9.75.9.08,0,.15-.005t.14-.015a.165.165,0,0,1,.19.075.961.961,0,0,1,.05.385.662.662,0,0,1-.1.39.455.455,0,0,1-.33.17A3.037,3.037,0,0,1,31.1.1Z" transform="translate(38.374 60.938)" fill="url(#linear-gradient)"/>
      <g id="Audience_poll-2" data-name="Audience poll" transform="translate(13.672 12.288)">
        <path id="Path_2756" data-name="Path 2756" d="M240.743,6641.963H237.21v-6.044a6.733,6.733,0,0,0-6.725-6.725h-.012c-.064,0-.129,0-.193,0a6.634,6.634,0,0,0-4.11,1.6l-.4.34-.236-.468a8.444,8.444,0,0,0-7.571-4.648h-.01c-.064,0-.127,0-.193,0a8.494,8.494,0,0,0-7.323,4.652l-.238.46-.394-.337a6.7,6.7,0,0,0-4.357-1.6h-.01c-.066,0-.129,0-.2,0a6.846,6.846,0,0,0-6.524,6.858v5.909h-3.784a1.438,1.438,0,0,0,0,2.876h45.8a1.438,1.438,0,0,0,0-2.876Zm-31.443-.078h-7.7v-5.862a3.937,3.937,0,0,1,3.7-3.951c.053,0,.1,0,.156,0a3.855,3.855,0,0,1,3.849,3.852Zm14.28,0H212.352v-7.249a5.719,5.719,0,0,1,5.439-5.738c.058,0,.115,0,.173,0a5.62,5.62,0,0,1,5.616,5.613Zm10.755,0h-7.7v-5.862a3.937,3.937,0,0,1,3.7-3.951c.053,0,.1,0,.156,0a3.855,3.855,0,0,1,3.849,3.852Z" transform="translate(-193.5 -6613.246)" stroke="rgba(0,0,0,0)" stroke-width="1" fill="url(#linear-gradient)"/>
        <path id="Path_2758" data-name="Path 2758" d="M357.078,6592.4a4.259,4.259,0,1,0,4.258,4.258A4.263,4.263,0,0,0,357.078,6592.4Zm0,5.643a1.383,1.383,0,1,1,1.382-1.385A1.385,1.385,0,0,1,357.078,6598.043Z" transform="translate(-320.095 -6586.532)" stroke="rgba(0,0,0,0)" stroke-width="1" fill="url(#linear-gradient)"/>
        <path id="Path_2760" data-name="Path 2760" d="M235.2,6592.4a4.259,4.259,0,1,0,4.258,4.258A4.263,4.263,0,0,0,235.2,6592.4Zm0,5.643a1.383,1.383,0,1,1,1.382-1.385A1.385,1.385,0,0,1,235.2,6598.043Z" transform="translate(-223.25 -6586.532)" stroke="rgba(0,0,0,0)" stroke-width="1" fill="url(#linear-gradient)"/>
        <path id="Path_2762" data-name="Path 2762" d="M288.834,6561.5a5.543,5.543,0,1,0,5.544,5.544A5.55,5.55,0,0,0,288.834,6561.5Zm0,8.439a2.9,2.9,0,1,1,2.9-2.9A2.9,2.9,0,0,1,288.834,6569.94Z" transform="translate(-264.369 -6561.5)" stroke="rgba(0,0,0,0)" stroke-width="1" fill="url(#linear-gradient)"/>
      </g>
    </g>
  </g>
</svg>
