<svg xmlns="http://www.w3.org/2000/svg" xmlns:xlink="http://www.w3.org/1999/xlink" width="81" height="75" viewBox="0 0 81 75">
  <defs>
    <linearGradient id="linear-gradient" x2="1" y2="1" gradientUnits="objectBoundingBox">
      <stop offset="0" stop-color="#00b3d5"/>
      <stop offset="1" stop-color="#00e1d3"/>
    </linearGradient>
  </defs>
  <g id="Reset_time" data-name="Reset time" transform="translate(-0.343 0.181)">
    <rect id="back" width="81" height="75" rx="16" transform="translate(0.343 -0.181)" opacity="0" fill="url(#linear-gradient)"/>
    <g id="Group_1609" data-name="Group 1609" transform="translate(1 0.531)">
      <path id="Path_3281" data-name="Path 3281" d="M-23.435.08a.575.575,0,0,1-.64-.66V-6.4a.575.575,0,0,1,.65-.65h2.41a2.622,2.622,0,0,1,1.79.555A1.963,1.963,0,0,1-18.6-4.94a2.03,2.03,0,0,1-.41,1.3,2.043,2.043,0,0,1-1.18.7,1.481,1.481,0,0,1,.84.77l.75,1.39a.688.688,0,0,1,.065.59q-.1.27-.515.27a.77.77,0,0,1-.44-.115.98.98,0,0,1-.3-.355L-20.8-2.25A.981.981,0,0,0-21.22-2.7a1.474,1.474,0,0,0-.625-.115h-.95V-.58A.575.575,0,0,1-23.435.08Zm.64-3.85h1.56q1.4,0,1.4-1.14t-1.4-1.13H-22.8ZM-15.055.1a3.079,3.079,0,0,1-1.43-.31,2.2,2.2,0,0,1-.925-.88,2.681,2.681,0,0,1-.325-1.35,2.706,2.706,0,0,1,.315-1.33,2.315,2.315,0,0,1,.87-.895,2.456,2.456,0,0,1,1.265-.325,2.121,2.121,0,0,1,1.645.66,2.562,2.562,0,0,1,.6,1.8q0,.37-.48.37h-3.02a1.332,1.332,0,0,0,1.5,1.31,3.013,3.013,0,0,0,.585-.065,2.131,2.131,0,0,0,.615-.225.566.566,0,0,1,.44-.095.394.394,0,0,1,.255.215.5.5,0,0,1,.02.355.59.59,0,0,1-.285.335,2.6,2.6,0,0,1-.8.325A3.773,3.773,0,0,1-15.055.1Zm-.18-4.24a1.2,1.2,0,0,0-.89.34,1.512,1.512,0,0,0-.41.92h2.46a1.5,1.5,0,0,0-.335-.935A1.058,1.058,0,0,0-15.235-4.14ZM-10.255.1a4.945,4.945,0,0,1-.91-.09,2.693,2.693,0,0,1-.86-.31.511.511,0,0,1-.26-.3.485.485,0,0,1,.015-.33.415.415,0,0,1,.22-.225.424.424,0,0,1,.365.03,3.449,3.449,0,0,0,.75.265,3.287,3.287,0,0,0,.69.075A1.252,1.252,0,0,0-9.53-.945.508.508,0,0,0-9.3-1.38q0-.42-.62-.54l-1-.19q-1.27-.24-1.27-1.32a1.336,1.336,0,0,1,.265-.83,1.69,1.69,0,0,1,.735-.54,2.864,2.864,0,0,1,1.08-.19,3.135,3.135,0,0,1,1.57.39.4.4,0,0,1,.225.275A.509.509,0,0,1-8.35-4a.434.434,0,0,1-.235.22.45.45,0,0,1-.37-.035,2.72,2.72,0,0,0-.595-.23,2.285,2.285,0,0,0-.545-.07,1.244,1.244,0,0,0-.725.17.529.529,0,0,0-.235.45q0,.44.57.54l1,.19a1.893,1.893,0,0,1,.985.44,1.133,1.133,0,0,1,.335.86,1.338,1.338,0,0,1-.57,1.145A2.527,2.527,0,0,1-10.255.1Zm5.5,0a3.079,3.079,0,0,1-1.43-.31,2.2,2.2,0,0,1-.925-.88,2.681,2.681,0,0,1-.325-1.35A2.706,2.706,0,0,1-7.12-3.77a2.315,2.315,0,0,1,.87-.895A2.456,2.456,0,0,1-4.985-4.99a2.121,2.121,0,0,1,1.645.66,2.562,2.562,0,0,1,.6,1.8q0,.37-.48.37h-3.02a1.332,1.332,0,0,0,1.5,1.31A3.013,3.013,0,0,0-4.15-.915a2.131,2.131,0,0,0,.615-.225.566.566,0,0,1,.44-.095.394.394,0,0,1,.255.215.5.5,0,0,1,.02.355.59.59,0,0,1-.285.335,2.6,2.6,0,0,1-.8.325A3.773,3.773,0,0,1-4.755.1Zm-.18-4.24a1.2,1.2,0,0,0-.89.34,1.512,1.512,0,0,0-.41.92h2.46a1.5,1.5,0,0,0-.335-.935A1.058,1.058,0,0,0-4.935-4.14ZM.475.1a1.706,1.706,0,0,1-1.94-1.92V-3.95h-.52q-.5,0-.5-.47t.5-.47h.52V-5.8a.557.557,0,0,1,.63-.63.552.552,0,0,1,.62.63v.91H.845q.5,0,.5.47t-.5.47H-.215v2.06a1.067,1.067,0,0,0,.21.72.86.86,0,0,0,.68.24,1.343,1.343,0,0,0,.3-.03A1.864,1.864,0,0,1,1.2-1a.234.234,0,0,1,.2.075.525.525,0,0,1,.08.345.911.911,0,0,1-.065.355.377.377,0,0,1-.235.215,2.71,2.71,0,0,1-.34.075A2.284,2.284,0,0,1,.475.1Zm6.55,0a1.706,1.706,0,0,1-1.94-1.92V-3.95h-.52q-.5,0-.5-.47t.5-.47h.52V-5.8a.557.557,0,0,1,.63-.63.552.552,0,0,1,.62.63v.91h1.06q.5,0,.5.47t-.5.47H6.335v2.06a1.067,1.067,0,0,0,.21.72.86.86,0,0,0,.68.24,1.343,1.343,0,0,0,.3-.03A1.864,1.864,0,0,1,7.755-1a.234.234,0,0,1,.2.075.525.525,0,0,1,.08.345.911.911,0,0,1-.065.355.377.377,0,0,1-.235.215,2.71,2.71,0,0,1-.34.075A2.284,2.284,0,0,1,7.025.1Zm2.35-5.99a.787.787,0,0,1-.545-.175.618.618,0,0,1-.2-.485.615.615,0,0,1,.2-.49.8.8,0,0,1,.545-.17q.74,0,.74.66T9.375-5.89Zm0,5.96a.583.583,0,0,1-.46-.18.727.727,0,0,1-.16-.5V-4.28q0-.68.62-.68t.63.68V-.61a.727.727,0,0,1-.16.5A.6.6,0,0,1,9.375.07Zm2.57.01a.557.557,0,0,1-.62-.64V-4.34a.548.548,0,0,1,.61-.63.548.548,0,0,1,.61.63v.2a1.594,1.594,0,0,1,.61-.625,1.768,1.768,0,0,1,.9-.225,1.379,1.379,0,0,1,1.44.96,1.7,1.7,0,0,1,.66-.7,1.884,1.884,0,0,1,.98-.255q1.65,0,1.65,2.01V-.56a.561.561,0,0,1-.63.64.557.557,0,0,1-.62-.64V-2.93a1.433,1.433,0,0,0-.185-.82.714.714,0,0,0-.625-.26.938.938,0,0,0-.77.345,1.475,1.475,0,0,0-.28.955V-.56a.557.557,0,0,1-.62.64.561.561,0,0,1-.63-.64V-2.93a1.433,1.433,0,0,0-.185-.82.7.7,0,0,0-.615-.26.938.938,0,0,0-.77.345,1.475,1.475,0,0,0-.28.955V-.56A.561.561,0,0,1,11.945.08ZM22.485.1a3.079,3.079,0,0,1-1.43-.31,2.2,2.2,0,0,1-.925-.88A2.681,2.681,0,0,1,19.8-2.44a2.706,2.706,0,0,1,.315-1.33,2.315,2.315,0,0,1,.87-.895,2.456,2.456,0,0,1,1.265-.325,2.121,2.121,0,0,1,1.645.66,2.562,2.562,0,0,1,.6,1.8q0,.37-.48.37H21A1.332,1.332,0,0,0,22.5-.85a3.013,3.013,0,0,0,.585-.065A2.131,2.131,0,0,0,23.7-1.14a.566.566,0,0,1,.44-.095.394.394,0,0,1,.255.215.5.5,0,0,1,.02.355.59.59,0,0,1-.285.335,2.6,2.6,0,0,1-.8.325A3.773,3.773,0,0,1,22.485.1Zm-.18-4.24a1.2,1.2,0,0,0-.89.34,1.512,1.512,0,0,0-.41.92h2.46a1.5,1.5,0,0,0-.335-.935A1.058,1.058,0,0,0,22.305-4.14Z" transform="translate(39.418 60.938)" fill="url(#linear-gradient)"/>
      <g id="Reset_time_icon" data-name="Reset time icon" transform="translate(25.343 12.288)">
        <g id="Group_1288" data-name="Group 1288" transform="translate(1.411)">
          <g id="Group_1287" data-name="Group 1287">
            <path id="Path_2772" data-name="Path 2772" d="M253.256,6336.7a13.707,13.707,0,0,1-10.062,5.371c-.02,0-.045,0-.066,0h0a1.084,1.084,0,0,1-1.085-1.079,1.072,1.072,0,0,1,1-1.076,11.559,11.559,0,0,0-.068-23.081c-.219-.011-.43-.017-.629-.017a11.57,11.57,0,0,0-11.539,10.862,1.076,1.076,0,0,1-1.857.666,1.085,1.085,0,0,1-.294-.813,13.567,13.567,0,0,1,3.22-8.01l.183-.215-1.262-1.264a1.079,1.079,0,0,1,.761-1.841,1.082,1.082,0,0,1,.764.315l1.287,1.29.214-.171a13.664,13.664,0,0,1,7.166-2.91l.277-.028v-2.042h-3.082a1.078,1.078,0,1,1,0-2.157h8.359a1.078,1.078,0,1,1,0,2.157h-3.119v2.044l.279.026a14.51,14.51,0,0,1,1.59.242,13.548,13.548,0,0,1,5.786,2.759l.216.175,1.384-1.386a1.078,1.078,0,1,1,1.526,1.524l-1.386,1.386.176.217a13.543,13.543,0,0,1,2.759,5.784A13.685,13.685,0,0,1,253.256,6336.7Z" transform="translate(-228.657 -6310.5)" stroke="rgba(0,0,0,0)" stroke-width="1" fill="url(#linear-gradient)"/>
            <path id="Path_2773" data-name="Path 2773" d="M253.256,6336.7a13.707,13.707,0,0,1-10.062,5.371c-.02,0-.045,0-.066,0h0a1.084,1.084,0,0,1-1.085-1.079,1.072,1.072,0,0,1,1-1.076,11.559,11.559,0,0,0-.068-23.081c-.219-.011-.43-.017-.629-.017a11.57,11.57,0,0,0-11.539,10.862,1.076,1.076,0,0,1-1.857.666,1.085,1.085,0,0,1-.294-.813,13.567,13.567,0,0,1,3.22-8.01l.183-.215-1.262-1.264a1.079,1.079,0,0,1,.761-1.841,1.082,1.082,0,0,1,.764.315l1.287,1.29.214-.171a13.664,13.664,0,0,1,7.166-2.91l.277-.028v-2.042h-3.082a1.078,1.078,0,1,1,0-2.157h8.359a1.078,1.078,0,1,1,0,2.157h-3.119v2.044l.279.026a14.51,14.51,0,0,1,1.59.242,13.548,13.548,0,0,1,5.786,2.759l.216.175,1.384-1.386a1.078,1.078,0,1,1,1.526,1.524l-1.386,1.386.176.217a13.543,13.543,0,0,1,2.759,5.784A13.685,13.685,0,0,1,253.256,6336.7Z" transform="translate(-228.657 -6310.5)" stroke="rgba(0,0,0,0)" stroke-width="1" fill="url(#linear-gradient)"/>
          </g>
        </g>
        <g id="Group_1289" data-name="Group 1289" transform="translate(14.025 10.501)">
          <path id="Path_2774" data-name="Path 2774" d="M312.658,6379.719v6.605a1.079,1.079,0,0,1-2.158,0v-6.605a1.079,1.079,0,1,1,2.158,0Z" transform="translate(-310.5 -6378.64)" stroke="rgba(0,0,0,0)" stroke-width="1" fill="url(#linear-gradient)"/>
          <path id="Path_2775" data-name="Path 2775" d="M312.658,6379.719v6.605a1.079,1.079,0,0,1-2.158,0v-6.605a1.079,1.079,0,1,1,2.158,0Z" transform="translate(-310.5 -6378.64)" stroke="rgba(0,0,0,0)" stroke-width="1" fill="url(#linear-gradient)"/>
        </g>
        <g id="Group_1290" data-name="Group 1290" transform="translate(0 19.881)">
          <path id="Path_2776" data-name="Path 2776" d="M231.521,6440.579a1.08,1.08,0,0,1-1.079,1.079h-9.864a1.079,1.079,0,1,1,0-2.157h9.864A1.08,1.08,0,0,1,231.521,6440.579Z" transform="translate(-219.5 -6439.5)" stroke="rgba(0,0,0,0)" stroke-width="1" fill="url(#linear-gradient)"/>
          <path id="Path_2777" data-name="Path 2777" d="M231.521,6440.579a1.08,1.08,0,0,1-1.079,1.079h-9.864a1.079,1.079,0,1,1,0-2.157h9.864A1.08,1.08,0,0,1,231.521,6440.579Z" transform="translate(-219.5 -6439.5)" stroke="rgba(0,0,0,0)" stroke-width="1" fill="url(#linear-gradient)"/>
        </g>
        <g id="Group_1291" data-name="Group 1291" transform="translate(2.631 24.813)">
          <path id="Path_2778" data-name="Path 2778" d="M245.96,6472.579a1.08,1.08,0,0,1-1.079,1.079h-7.233a1.079,1.079,0,1,1,0-2.157h7.233A1.08,1.08,0,0,1,245.96,6472.579Z" transform="translate(-236.57 -6471.5)" stroke="rgba(0,0,0,0)" stroke-width="1" fill="url(#linear-gradient)"/>
          <path id="Path_2779" data-name="Path 2779" d="M245.96,6472.579a1.08,1.08,0,0,1-1.079,1.079h-7.233a1.079,1.079,0,1,1,0-2.157h7.233A1.08,1.08,0,0,1,245.96,6472.579Z" transform="translate(-236.57 -6471.5)" stroke="rgba(0,0,0,0)" stroke-width="1" fill="url(#linear-gradient)"/>
        </g>
        <g id="Group_1292" data-name="Group 1292" transform="translate(5.393 29.436)">
          <path id="Path_2780" data-name="Path 2780" d="M260.593,6502.579a1.08,1.08,0,0,1-1.079,1.079h-3.945a1.079,1.079,0,1,1,0-2.157h3.945A1.08,1.08,0,0,1,260.593,6502.579Z" transform="translate(-254.49 -6501.501)" stroke="rgba(0,0,0,0)" stroke-width="1" fill="url(#linear-gradient)"/>
          <path id="Path_2781" data-name="Path 2781" d="M260.593,6502.579a1.08,1.08,0,0,1-1.079,1.079h-3.945a1.079,1.079,0,1,1,0-2.157h3.945A1.08,1.08,0,0,1,260.593,6502.579Z" transform="translate(-254.49 -6501.501)" stroke="rgba(0,0,0,0)" stroke-width="1" fill="url(#linear-gradient)"/>
        </g>
      </g>
    </g>
  </g>
</svg>
