<svg xmlns="http://www.w3.org/2000/svg" xmlns:xlink="http://www.w3.org/1999/xlink" width="81" height="75" viewBox="0 0 81 75">
  <defs>
    <linearGradient id="linear-gradient" x2="1" y2="1" gradientUnits="objectBoundingBox">
      <stop offset="0" stop-color="#00b3d5"/>
      <stop offset="1" stop-color="#00e1d3"/>
    </linearGradient>
  </defs>
  <g id="fiftyfifty" transform="translate(0 0.181)">
    <rect id="back" width="81" height="75" rx="16" transform="translate(0 -0.181)" opacity="0" fill="url(#linear-gradient)"/>
    <g id="Group_1611" data-name="Group 1611" transform="translate(1 -0.469)">
      <path id="Path_3279" data-name="Path 3279" d="M-19.8.08a.592.592,0,0,1-.66-.68V-6.37a.6.6,0,0,1,.68-.68h3.49q.52,0,.52.5a.46.46,0,0,1-.52.52h-2.89v1.99h2.68q.52,0,.52.5a.46.46,0,0,1-.52.52h-2.68V-.6Q-19.185.08-19.8.08Zm5.86-5.97a.787.787,0,0,1-.545-.175.618.618,0,0,1-.2-.485.615.615,0,0,1,.2-.49.8.8,0,0,1,.545-.17q.74,0,.74.66T-13.945-5.89Zm0,5.96a.583.583,0,0,1-.46-.18.727.727,0,0,1-.16-.5V-4.28q0-.68.62-.68t.63.68V-.61a.727.727,0,0,1-.16.5A.6.6,0,0,1-13.945.07Zm2.89.01a.561.561,0,0,1-.63-.64V-3.95h-.46q-.5,0-.5-.47t.5-.47h.46V-4.9a2.086,2.086,0,0,1,.52-1.545,2.366,2.366,0,0,1,1.5-.605l.34-.03a.445.445,0,0,1,.38.11.467.467,0,0,1,.125.315.541.541,0,0,1-.1.33.382.382,0,0,1-.29.165l-.14.01a1.3,1.3,0,0,0-.83.29,1.009,1.009,0,0,0-.26.76v.21h.85q.5,0,.5.47t-.5.47h-.85V-.56A.557.557,0,0,1-11.055.08Zm4.64.02a1.706,1.706,0,0,1-1.94-1.92V-3.95h-.52q-.5,0-.5-.47t.5-.47h.52V-5.8a.557.557,0,0,1,.63-.63.552.552,0,0,1,.62.63v.91h1.06q.5,0,.5.47t-.5.47H-7.1v2.06a1.067,1.067,0,0,0,.21.72.86.86,0,0,0,.68.24,1.343,1.343,0,0,0,.3-.03A1.864,1.864,0,0,1-5.685-1a.234.234,0,0,1,.2.075A.525.525,0,0,1-5.4-.58a.911.911,0,0,1-.065.355A.377.377,0,0,1-5.7-.01a2.71,2.71,0,0,1-.34.075A2.284,2.284,0,0,1-6.415.1Zm2.92,1.78a.482.482,0,0,1-.47-.25.636.636,0,0,1,.01-.57l.57-1.26-1.71-3.94a.633.633,0,0,1,0-.58.574.574,0,0,1,.55-.25.6.6,0,0,1,.37.105.876.876,0,0,1,.25.395l1.2,3,1.23-3.01a.826.826,0,0,1,.26-.385.685.685,0,0,1,.4-.105.464.464,0,0,1,.45.25.636.636,0,0,1-.01.57L-2.825,1.4a.9.9,0,0,1-.28.38A.691.691,0,0,1-3.495,1.88ZM7.445-5.89q-.71,0-.71-.66t.71-.66q.72,0,.72.66a.635.635,0,0,1-.185.485A.75.75,0,0,1,7.445-5.89ZM4.2.08a.561.561,0,0,1-.63-.64V-3.95h-.46q-.5,0-.5-.47t.5-.47h.46V-4.9a2.1,2.1,0,0,1,.51-1.53,2.334,2.334,0,0,1,1.48-.62l.3-.03a.515.515,0,0,1,.425.1.457.457,0,0,1,.145.315.555.555,0,0,1-.085.335.356.356,0,0,1-.275.17l-.24.02a1.155,1.155,0,0,0-.77.29,1.045,1.045,0,0,0-.24.75v.21h2.61q.62,0,.62.67V-.61a.742.742,0,0,1-.155.5.58.58,0,0,1-.465.18A.6.6,0,0,1,6.96-.11.712.712,0,0,1,6.8-.61V-3.95H4.815V-.56A.557.557,0,0,1,4.2.08Zm6.11,0a.561.561,0,0,1-.63-.64V-3.95h-.46q-.5,0-.5-.47t.5-.47h.46V-4.9a2.086,2.086,0,0,1,.52-1.545,2.366,2.366,0,0,1,1.5-.605l.34-.03a.445.445,0,0,1,.38.11.467.467,0,0,1,.125.315.541.541,0,0,1-.1.33.382.382,0,0,1-.29.165l-.14.01a1.3,1.3,0,0,0-.83.29,1.009,1.009,0,0,0-.26.76v.21h.85q.5,0,.5.47t-.5.47h-.85V-.56A.557.557,0,0,1,10.305.08Zm4.64.02a1.706,1.706,0,0,1-1.94-1.92V-3.95h-.52q-.5,0-.5-.47t.5-.47h.52V-5.8a.557.557,0,0,1,.63-.63.552.552,0,0,1,.62.63v.91h1.06q.5,0,.5.47t-.5.47h-1.06v2.06a1.067,1.067,0,0,0,.21.72.86.86,0,0,0,.68.24,1.343,1.343,0,0,0,.3-.03,1.864,1.864,0,0,1,.23-.04.234.234,0,0,1,.2.075.525.525,0,0,1,.08.345.911.911,0,0,1-.065.355.377.377,0,0,1-.235.215,2.71,2.71,0,0,1-.34.075A2.284,2.284,0,0,1,14.945.1Zm2.92,1.78a.482.482,0,0,1-.47-.25.636.636,0,0,1,.01-.57l.57-1.26-1.71-3.94a.633.633,0,0,1,0-.58.574.574,0,0,1,.55-.25.6.6,0,0,1,.37.105.876.876,0,0,1,.25.395l1.2,3,1.23-3.01a.826.826,0,0,1,.26-.385.685.685,0,0,1,.4-.105.464.464,0,0,1,.45.25.636.636,0,0,1-.01.57L18.535,1.4a.9.9,0,0,1-.28.38A.691.691,0,0,1,17.865,1.88Z" transform="translate(39.465 61.416)" fill="url(#linear-gradient)"/>
      <g id="fiftyfifty_icon" data-name="fiftyfifty icon" transform="translate(26 12.288)">
        <path id="Path_2764" data-name="Path 2764" d="M234.071,6777.939l-.542,3.935.385.014c2.46.089,4.282.969,5.131,2.481a5.807,5.807,0,0,1,.592,4.686,5.05,5.05,0,0,1-2.8,3.025,8.553,8.553,0,0,1-3.449.6,18.353,18.353,0,0,1-3.448-.35,1.22,1.22,0,0,1,.254-2.413,1.273,1.273,0,0,1,.258.028,15.73,15.73,0,0,0,2.948.3,6.291,6.291,0,0,0,2.443-.385,2.573,2.573,0,0,0,1.477-1.564,3.407,3.407,0,0,0-.4-2.725c-.575-1.026-2.162-1.243-3.39-1.243a9.491,9.491,0,0,0-1.223.075,1.187,1.187,0,0,1-.19.016,1.221,1.221,0,0,1-1.207-1.387l.894-6.473a1.224,1.224,0,0,1,1.207-1.052h6.472a1.219,1.219,0,1,1,0,2.438Z" transform="translate(-228.978 -6775.5)" stroke="rgba(0,0,0,0)" stroke-width="1" fill="url(#linear-gradient)"/>
        <path id="Path_2766" data-name="Path 2766" d="M279.9,6886.454a5.058,5.058,0,0,1-2.8,3.024,8.59,8.59,0,0,1-3.449.6,18.258,18.258,0,0,1-3.449-.352,1.219,1.219,0,0,1,.254-2.411,1.165,1.165,0,0,1,.26.029,15.644,15.644,0,0,0,2.944.3,6.284,6.284,0,0,0,2.444-.388,2.563,2.563,0,0,0,1.477-1.563,3.407,3.407,0,0,0-.4-2.725c-.446-.792-1.693-1.248-3.425-1.248a8.111,8.111,0,0,0-1.192.081,1.243,1.243,0,0,1-.186.014,1.206,1.206,0,0,1-.855-.35,1.222,1.222,0,0,1-.352-1.037l.294-2.137,2.584-2.6.275-.277-.038.277-.495,3.585.387.014c2.458.087,4.28.969,5.129,2.481A5.8,5.8,0,0,1,279.9,6886.454Z" transform="translate(-262.225 -6858.003)" stroke="rgba(0,0,0,0)" stroke-width="1" fill="url(#linear-gradient)"/>
        <path id="Path_2767" data-name="Path 2767" d="M305.39,6862.22a1.221,1.221,0,0,1-1.22,1.22h-5.35l.338-.34,2.087-2.1h2.925A1.221,1.221,0,0,1,305.39,6862.22Z" transform="translate(-286.652 -6846.104)" stroke="rgba(0,0,0,0)" stroke-width="1" fill="url(#linear-gradient)"/>
        <path id="Path_2769" data-name="Path 2769" d="M342.162,6864.131c-2.585,0-4.611,2.688-4.611,6.12s2.026,6.12,4.611,6.12,4.613-2.687,4.613-6.12S344.749,6864.131,342.162,6864.131Zm0,9.8c-1.157,0-2.172-1.72-2.172-3.682s1.016-3.681,2.172-3.681,2.174,1.72,2.174,3.681S343.32,6873.932,342.162,6873.932Z" transform="translate(-318.635 -6848.69)" stroke="rgba(0,0,0,0)" stroke-width="1" fill="url(#linear-gradient)"/>
        <path id="Path_2770" data-name="Path 2770" d="M306.752,6785.647c-.221-3.156-2.174-5.517-4.591-5.517-2.585,0-4.612,2.688-4.612,6.121,0,2.542,1.157,4.8,2.9,5.7l2.075-2.073a1.254,1.254,0,0,1-.364.055c-1.157,0-2.172-1.719-2.172-3.681s1.016-3.681,2.172-3.681,2.174,1.719,2.174,3.681a5.319,5.319,0,0,1-.523,2.336Z" transform="translate(-285.604 -6779.323)" stroke="rgba(0,0,0,0)" stroke-width="1" fill="url(#linear-gradient)"/>
      </g>
    </g>
  </g>
</svg>
