<svg xmlns="http://www.w3.org/2000/svg" xmlns:xlink="http://www.w3.org/1999/xlink" width="81" height="75" viewBox="0 0 81 75">
  <defs>
    <linearGradient id="linear-gradient" x2="1" y2="1" gradientUnits="objectBoundingBox">
      <stop offset="0" stop-color="#00b3d5"/>
      <stop offset="1" stop-color="#00e1d3"/>
    </linearGradient>
  </defs>
  <g id="Skip" transform="translate(-0.054 0.181)">
    <rect id="back" width="81" height="75" rx="16" transform="translate(0.054 -0.181)" opacity="0" fill="url(#linear-gradient)"/>
    <g id="Group_1612" data-name="Group 1612" transform="translate(0 -0.469)">
      <path id="Path_3282" data-name="Path 3282" d="M-6.91.1a5.657,5.657,0,0,1-1.3-.15A3.558,3.558,0,0,1-9.32-.5.6.6,0,0,1-9.6-.87a.652.652,0,0,1,.035-.415.488.488,0,0,1,.27-.27.461.461,0,0,1,.425.075,3.417,3.417,0,0,0,.93.38,4.316,4.316,0,0,0,1.03.12,1.964,1.964,0,0,0,1.15-.265A.815.815,0,0,0-5.4-1.93a.661.661,0,0,0-.255-.55,2.212,2.212,0,0,0-.875-.33l-1.1-.23q-1.88-.4-1.88-1.93a1.927,1.927,0,0,1,.35-1.15,2.275,2.275,0,0,1,.97-.76,3.553,3.553,0,0,1,1.43-.27A4.241,4.241,0,0,1-5.62-7a3.3,3.3,0,0,1,.97.44.544.544,0,0,1,.24.345.57.57,0,0,1-.05.38.476.476,0,0,1-.285.24A.556.556,0,0,1-5.2-5.68a2.847,2.847,0,0,0-.75-.3,3.553,3.553,0,0,0-.82-.09,1.777,1.777,0,0,0-1.08.29.9.9,0,0,0-.39.76A.734.734,0,0,0-8-4.445a1.8,1.8,0,0,0,.82.335l1.09.23a3.085,3.085,0,0,1,1.475.66,1.559,1.559,0,0,1,.485,1.2A1.872,1.872,0,0,1-4.47-.91a2.2,2.2,0,0,1-.965.745A3.761,3.761,0,0,1-6.91.1ZM-2.53.08a.557.557,0,0,1-.62-.64V-6.5a.552.552,0,0,1,.62-.63.557.557,0,0,1,.63.63v3.69h.02L-.23-4.55a3.164,3.164,0,0,1,.35-.31.68.68,0,0,1,.41-.11.535.535,0,0,1,.395.135.443.443,0,0,1,.135.325.56.56,0,0,1-.18.38L-.62-2.55,1.05-.75a.5.5,0,0,1,.165.385.445.445,0,0,1-.165.32A.574.574,0,0,1,.67.08.792.792,0,0,1,.225-.03,2.069,2.069,0,0,1-.14-.36L-1.88-2.18H-1.9V-.56A.561.561,0,0,1-2.53.08ZM2.83-5.89a.787.787,0,0,1-.545-.175A.618.618,0,0,1,2.09-6.55a.615.615,0,0,1,.195-.49.8.8,0,0,1,.545-.17q.74,0,.74.66T2.83-5.89Zm0,5.96a.583.583,0,0,1-.46-.18.727.727,0,0,1-.16-.5V-4.28q0-.68.62-.68t.63.68V-.61a.727.727,0,0,1-.16.5A.6.6,0,0,1,2.83.07ZM5.38,1.88a.552.552,0,0,1-.62-.63V-4.34a.548.548,0,0,1,.61-.63.552.552,0,0,1,.62.63v.21a1.558,1.558,0,0,1,.63-.625,1.932,1.932,0,0,1,.96-.235A2.043,2.043,0,0,1,8.7-4.68a2.068,2.068,0,0,1,.755.875A3.119,3.119,0,0,1,9.73-2.45,3.16,3.16,0,0,1,9.46-1.1a2.069,2.069,0,0,1-.75.885A2.037,2.037,0,0,1,7.58.1a1.93,1.93,0,0,1-.935-.225A1.589,1.589,0,0,1,6.01-.73V1.25A.557.557,0,0,1,5.38,1.88ZM7.23-.85a1.117,1.117,0,0,0,.9-.405A1.818,1.818,0,0,0,8.47-2.45a1.794,1.794,0,0,0-.34-1.2,1.129,1.129,0,0,0-.9-.395,1.129,1.129,0,0,0-.9.395,1.794,1.794,0,0,0-.34,1.2,1.818,1.818,0,0,0,.34,1.195A1.117,1.117,0,0,0,7.23-.85Z" transform="translate(40.673 60.938)" fill="url(#linear-gradient)"/>
      <g id="skip_icon" data-name="skip icon" transform="translate(24.054 12.288)">
        <path id="Path_2782" data-name="Path 2782" d="M389.861,7010.22v22.819a1.449,1.449,0,0,1-2.861,0V7010.22a1.449,1.449,0,0,1,2.861,0Z" transform="translate(-356.448 -7005.833)" stroke="rgba(0,0,0,0)" stroke-width="1" fill="url(#linear-gradient)"/>
        <path id="Path_2783" data-name="Path 2783" d="M389.861,7010.22v22.819a1.449,1.449,0,0,1-2.861,0V7010.22a1.449,1.449,0,0,1,2.861,0Z" transform="translate(-356.448 -7005.833)" stroke="rgba(0,0,0,0)" stroke-width="1" fill="url(#linear-gradient)"/>
        <path id="Path_2784" data-name="Path 2784" d="M262.965,7008.08l-23.283-14.367a1.432,1.432,0,0,0-2.183,1.218v28.733a1.429,1.429,0,0,0,2.183,1.215l23.283-14.364a1.43,1.43,0,0,0,0-2.436Zm-22.6,13.02v-23.605l19.13,11.8Z" transform="translate(-237.5 -6993.5)" stroke="rgba(0,0,0,0)" stroke-width="1" fill="url(#linear-gradient)"/>
        <path id="Path_2785" data-name="Path 2785" d="M262.965,7008.08l-23.283-14.367a1.432,1.432,0,0,0-2.183,1.218v28.733a1.429,1.429,0,0,0,2.183,1.215l23.283-14.364a1.43,1.43,0,0,0,0-2.436Zm-22.6,13.02v-23.605l19.13,11.8Z" transform="translate(-237.5 -6993.5)" stroke="rgba(0,0,0,0)" stroke-width="1" fill="url(#linear-gradient)"/>
      </g>
    </g>
  </g>
</svg>
