<svg id="setting" xmlns="http://www.w3.org/2000/svg" width="27" height="27" viewBox="0 0 27 27">
  <path id="Path_10" data-name="Path 10" d="M0,0H27V27H0Z" fill="none"/>
  <path id="Path_11" data-name="Path 11" d="M21.489,14.443a8.083,8.083,0,0,0,.069-1.074,6.6,6.6,0,0,0-.08-1.074L23.8,10.489a.561.561,0,0,0,.137-.7L21.741,6a.558.558,0,0,0-.674-.251l-2.731,1.1a8.071,8.071,0,0,0-1.851-1.074l-.411-2.9a.553.553,0,0,0-.548-.468H11.138a.541.541,0,0,0-.537.468l-.411,2.9A8.25,8.25,0,0,0,8.338,6.845l-2.731-1.1A.545.545,0,0,0,4.933,6L2.751,9.792a.52.52,0,0,0,.137.7l2.319,1.805a6.357,6.357,0,0,0-.023,2.148L2.865,16.248a.561.561,0,0,0-.137.7l2.194,3.793a.558.558,0,0,0,.674.251l2.731-1.1a8.071,8.071,0,0,0,1.851,1.074l.411,2.9a.562.562,0,0,0,.548.468h4.387a.533.533,0,0,0,.537-.468l.411-2.9a7.837,7.837,0,0,0,1.851-1.074l2.731,1.1a.545.545,0,0,0,.674-.251l2.194-3.793a.529.529,0,0,0-.137-.7Zm-8.158,3.039a4.113,4.113,0,1,1,4.113-4.113A4.125,4.125,0,0,1,13.331,17.482Z" transform="translate(0.333 0.3)" fill="#00b3d5"/>
</svg>
